# xmcd
#
# Track frame offsets: 
#        150
#        12620
#        26242
#        36387
#        51037
#        61192
#        68575
#        78577
#        88330
#        100560
#        113295
#        124740
#        140005
#        151227
#        164815
#        176840
#        198512
#        210715
#        227217
#        245835
#
# Disc length: 3442 seconds
#
# Revision: 2
# Processed by: cddbd v1.5.1PL2 Copyright (c) Steve Scherf et al.
# Submitted via: ExactAudioCopy v0.95a5
#
DISCID=200d7014
DTITLE=Various Artist - Keep On The Sunny Side: June Carter Cash - Her Life I
DTITLE=n Music
DYEAR=2005
DGENRE=Country
TTITLE0=Johnny Cash and June Carter - Jackson
TTITLE1=Johnny Cash and June Carter - If I Were A Carpenter
TTITLE2=Johnny Cash and June Carter - The Loving Gift
TTITLE3=June Carter Cash - A Good Man
TTITLE4=June Carter Cash - Ole Slewfoot
TTITLE5=June Carter Cash - Losing You
TTITLE6=June Carter Cash - The Shadow Of A Lady
TTITLE7=June Carter Cash - Gatsby's Restaraunt
TTITLE8=June Carter Cash with Jerry Hensley - Once Before I Die
TTITLE9=June Carter Cash - The L&N Don't Stop Here Anymore
TTITLE10=June Carter Cash - East Virginia Blues
TTITLE11=June Carter Cash - Gone
TTITLE12=June Carter Cash - Appalachian Pride
TTITLE13=June Carter Cash - I Love You Sweetheart
TTITLE14=June Carter Cash - Another Broken Hearted Girl
TTITLE15=June Carter Cash - Song To John
TTITLE16=Johnny Cash and June Carter Cash - Far Side Banks Of Jordan
TTITLE17=June Carter Cash with Nitty Gritty Dirt Band and Earl Scruggs /
TTITLE17=Diamonds In The Rough
TTITLE18=June Carter Cash - Will The Circle Be Unbroken
TTITLE19=June Carter Cash - Keep On The Sunny Side
EXTD=(c)2005 Sony BMG Music Entertainment /Columbia LEGACY\nCatalog: 5
EXTD=195042001\nDisk 2 of 2 
EXTT0=
EXTT1=
EXTT2=
EXTT3=
EXTT4=
EXTT5=
EXTT6=
EXTT7=
EXTT8=
EXTT9=
EXTT10=
EXTT11=
EXTT12=
EXTT13=
EXTT14=
EXTT15=
EXTT16=
EXTT17=
EXTT18=
EXTT19=
PLAYORDER=
